#!OML:ASF F:\VICON\USERDATA\INSTALL\Justin_Nancy\Justin_Nancy.ASF
:FULLY-SPECIFIED
:DEGREES
544
root -0.409946 17.2464 38.2328 -0.159045 -3.12911 -4.02182
lowerback 6.8807 1.50657 3.93144
upperback -0.635097 2.44982 2.52302
thorax -4.46899 1.14816 0.151968
lowerneck -17.8466 -4.43469 -8.96145
upperneck 22.5995 -4.97039 5.27506
head 10.5751 -2.4296 2.66544
rclavicle -1.49461e-014 7.95139e-015
rhumerus -26.0897 -15.4341 -77.1276
rradius 30.465
rwrist 6.53313
rhand -17.1061 11.3478
rfingers 7.12502
rthumb 9.13299 -18.4345
lclavicle -1.49461e-014 7.95139e-015
lhumerus -34.2365 6.15353 84.3698
lradius 27.3834
lwrist -10.5366
lhand -11.5448 26.447
lfingers 7.12502
lthumb 14.4956 55.9206
rfemur 0.148289 4.92037 30.6597
rtibia 21.0122
rfoot -14.9778 -7.41615
rtoes 2.92804
lfemur -30.4786 1.07793 -15.532
ltibia 50.1134
lfoot -9.26982 7.27779
ltoes -5.12007
545
root -0.411685 17.2374 38.3887 -0.0582964 -3.227 -3.95864
lowerback 6.96113 1.58659 3.81776
upperback -0.682937 2.55361 2.51426
thorax -4.5662 1.20024 0.192396
lowerneck -18.4907 -4.59616 -8.88058
upperneck 23.2167 -5.0983 4.95415
head 10.9257 -2.51446 2.51386
rclavicle -3.24267e-014 -1.86858e-014
rhumerus -25.7222 -14.6923 -77.272
rradius 31.2231
rwrist 6.06973
rhand -17.2535 11.0981
rfingers 7.12502
rthumb 8.99074 -18.6903
lclavicle -3.24267e-014 -1.86858e-014
lhumerus -34.5491 6.51265 84.2884
lradius 27.1825
lwrist -10.6731
lhand -11.8591 26.187
lfingers 7.12502
lthumb 14.1928 55.6821
rfemur 0.856815 5.14306 30.6723
rtibia 20.5213
rfoot -15.0379 -7.69973
rtoes 3.48148
lfemur -30.7759 0.596895 -15.3995
ltibia 47.635
lfoot -9.63186 7.84735
ltoes -7.4088
546
root -0.408941 17.2236 38.5413 0.0784368 -3.29117 -4.20397
lowerback 6.98478 1.59102 4.01497
upperback -0.742972 2.5834 2.5778
thorax -4.63645 1.20905 0.143707
lowerneck -18.0776 -4.54285 -9.07887
upperneck 22.7359 -5.0779 5.30106
head 10.6827 -2.48324 2.67671
rclavicle -1.02374e-014 -4.09496e-014
rhumerus -25.3634 -14.1028 -77.4352
rradius 31.9837
rwrist 5.67025
rhand -16.9137 10.3264
rfingers 7.12502
rthumb 9.31865 -19.4477
lclavicle -1.02374e-014 -4.09496e-014
lhumerus -34.8103 6.79491 84.1576
lradius 26.7328
lwrist -10.3142
lhand -12.81 24.8309
lfingers 7.12502
lthumb 13.2763 54.388
rfemur 1.58858 5.25968 31.0216
rtibia 19.9755
rfoot -15.0284 -8.0038
rtoes 3.44463
lfemur -31.0796 0.0642167 -14.9067
ltibia 45.0536
lfoot -8.9802 8.11064
ltoes -6.76684
547
root -0.398053 17.2184 38.6968 0.439806 -3.29834 -4.25319
lowerback 6.67316 1.60125 4.13737
upperback -0.753709 2.58721 2.55342
thorax -4.46509 1.21059 0.0594783
lowerneck -17.2581 -4.36112 -9.43356
upperneck 21.4986 -4.92626 5.98637
head 10.0937 -2.36695 3.00037
rclavicle -3.09234e-014 -4.21423e-014
rhumerus -24.8884 -13.2273 -77.6797
rradius 32.8342
rwrist 4.91912
rhand -17.0101 10.7224
rfingers 7.12502
rthumb 9.22559 -19.0558
lclavicle -3.09234e-014 -4.21423e-014
lhumerus -34.6078 7.4749 83.9303
lradius 26.1516
lwrist -10.5304
lhand -13.5511 23.9616
lfingers 7.12502
lthumb 12.5619 53.564
rfemur 2.10352 5.0633 31.0287
rtibia 19.4099
rfoot -15.2238 -8.01576
rtoes 2.80796
lfemur -31.5195 -0.736187 -14.6042
ltibia 42.3597
lfoot -7.93752 8.46738
ltoes -3.56112
548
root -0.386779 17.2093 38.8597 0.736722 -3.33281 -4.39311
lowerback 6.48674 1.69141 4.43641
upperback -0.80229 2.72121 2.54303
thorax -4.39312 1.27027 -0.125577
lowerneck -17.1019 -4.41224 -9.93124
upperneck 20.8064 -5.00912 6.65302
head 9.85695 -2.36729 3.30184
rclavicle -5.82688e-015 1.19271e-014
rhumerus -24.5113 -11.7931 -77.8133
rradius 33.4911
rwrist 3.43982
rhand -17.715 12.6634
rfingers 7.12502
rthumb 8.54539 -17.1437
lclavicle -5.82688e-015 1.19271e-014
lhumerus -34.425 7.76518 83.8805
lradius 25.6991
lwrist -10.9448
lhand -13.2421 24.3724
lfingers 7.12502
lthumb 12.8598 53.9562
rfemur 2.67702 4.79268 31.0948
rtibia 18.8533
rfoot -15.4134 -7.89007
rtoes 2.73607
lfemur -31.7011 -1.5959 -14.1531
ltibia 39.5949
lfoot -7.38791 8.6684
ltoes -3.15319
